<svg viewBox="0 0 1024 1024" version="1.1" xmlns="http://www.w3.org/2000/svg" width="200" height="200">
    <path d="M192 384h640a42.666667 42.666667 0 0 1 42.666667 42.666667v362.666666a42.666667 42.666667 0 0 1-42.666667 42.666667H192v106.666667a21.333333 21.333333 0 0 0 21.333333 21.333333h725.333334a21.333333 21.333333 0 0 0 21.333333-21.333333V308.821333L949.909333 298.666667h-126.528A98.048 98.048 0 0 1 725.333333 200.618667V72.661333L716.714667 64H213.333333a21.333333 21.333333 0 0 0-21.333333 21.333333v298.666667zM128 832H42.666667a42.666667 42.666667 0 0 1-42.666667-42.666667V426.666667a42.666667 42.666667 0 0 1 42.666667-42.666667h85.333333V85.333333a85.333333 85.333333 0 0 1 85.333333-85.333333h530.026667L1024 282.453333V938.666667a85.333333 85.333333 0 0 1-85.333333 85.333333H213.333333a85.333333 85.333333 0 0 1-85.333333-85.333333v-106.666667z m149.013333-364.885333c-40.704 0-72.96 13.824-96.768 42.24-22.656 26.496-33.792 60.288-33.792 101.376 0 40.704 11.136 74.112 33.792 99.84 24.192 27.648 57.984 41.472 101.76 41.472 24.576 0 46.464-3.072 66.432-9.216 18.816-6.144 35.328-14.592 49.92-26.112V600.746667h-117.504v38.4h72.576v56.448c-9.216 5.376-18.816 9.6-29.568 12.672a142.570667 142.570667 0 0 1-36.864 4.608c-33.408 0-57.984-9.216-73.728-27.648-14.592-17.28-21.888-42.24-21.888-74.496 0-33.792 8.064-59.52 24.576-77.952 14.976-17.664 35.328-26.112 61.056-26.112 20.736 0 37.632 4.224 50.304 13.056 12.288 8.832 20.736 21.888 24.576 39.552h45.312c-4.992-30.72-17.28-53.376-36.864-68.736-20.352-15.744-48-23.424-83.328-23.424z m171.264 5.376V746.666667h44.928V472.490667h-44.928z m98.688 0V746.666667h44.928v-121.344h134.016v-38.4h-134.016v-76.032h142.08v-38.4h-187.008z"
          fill="#1296db"/>
</svg>
